<svg width="512" height="512" viewBox="0 0 512 512" xmlns="http://www.w3.org/2000/svg"><path d="M51 368 C61 315,73 253,82 203 C84 190,85 178,86 171 C90 195,84 242,75 290 C66 331,56 359,51 368 Z" fill="#ffffff"/><path d="M461 368 C451 315,439 253,430 203 C428 190,427 178,426 171 C422 195,428 242,437 290 C446 331,456 359,461 368 Z" fill="#ffffff"/><path d="M51 383 C88 358,144 348,195 366 C219 375,238 394,250 417 C202 401,112 385,51 383 Z" fill="#ffffff"/><path d="M461 383 C424 358,368 348,317 366 C293 375,274 394,262 417 C310 401,400 385,461 383 Z" fill="#ffffff"/><path d="M219 141 L354 314 Q357 318 353 322 L328 323 Q324 323 321 318 L190 160 Z" fill="#ef1b2d" opacity="0.62"/><path d="M170 166 Q168 170 171 173 L188 192 Q191 195 195 192 L267 126 Q270 123 266 120 L240 113 Q235 111 231 115 Z" fill="#e60012"/><path d="M152 294 Q149 299 154 303 L174 318 Q178 321 182 317 L232 261 Q236 257 232 252 L217 236 Q213 232 209 236 Z" fill="#e60012"/><path d="M279 78 C329 96,357 138,361 188 C365 242,333 281,289 289 C254 295,225 280,207 258 C231 268,260 267,284 251 C321 226,337 174,320 132 C311 109,296 91,279 78 Z" fill="#e60012"/><path d="M254.5 148 C254.8 146.5,257.2 146.5,257.5 148 C258.2 159,258.5 171,258.8 184 C259.1 209,259.2 237,259.1 267 C258.9 313,258.2 363,257.2 414 C256.8 417,255.2 417,254.8 414 C253.8 363,253.1 313,252.9 267 C252.8 237,252.9 209,253.2 184 C253.5 171,253.8 159,254.5 148 Z" fill="#ffffff"/></svg>
